<?xml version="1.0" standalone="no"?>
<!DOCTYPE svg PUBLIC "-//W3C//DTD SVG 1.1//EN" "http://www.w3.org/Graphics/SVG/1.1/DTD/svg11.dtd" >
<svg xmlns="http://www.w3.org/2000/svg">
<metadata>Generated by IcoMoon</metadata>
<defs>
<font id="icomoon" horiz-adv-x="1024">
<font-face units-per-em="1024" ascent="960" descent="-64" />
<missing-glyph horiz-adv-x="1024" />
<glyph unicode="&#x20;" horiz-adv-x="512" d="" />
<glyph unicode="&#xe600;" glyph-name="bus" d="M134.485 931.668c-27.989 0-50.859-22.869-50.859-50.859v-745.131c0-27.989 22.869-50.859 50.859-50.859h46.080v-75.435c0-11.947 9.557-21.163 21.163-21.163h78.507c11.605 0 21.163 9.557 21.163 21.163v75.435h435.541v-75.435c0-11.947 9.557-21.163 21.163-21.163h78.507c11.605 0 21.163 9.557 21.163 21.163v75.435h46.080c27.989 0 50.859 22.869 50.859 50.859v745.131c0 27.989-22.869 50.859-50.859 50.859h-769.365zM155.989 738.132h725.675v-338.603h-725.675v338.603zM349.525 278.698h338.603v-72.704h-338.603v72.704zM180.224 327.167h120.832v-120.832h-120.832v120.832zM736.597 327.167h120.832v-120.832h-120.832v120.832zM301.397 883.54h459.435v-96.597h-459.435v96.597z" />
<glyph unicode="&#xe601;" glyph-name="change" d="M967.68 697.514l-167.253 166.912c-8.875 8.875-16.043 5.803-16.043-6.485v-112.981h-720.555c-12.288 0-22.528-10.24-22.528-22.528v-81.579c0-12.288 10.24-22.528 22.528-22.528h720.555v-112.981c0-12.288 7.168-15.36 16.043-6.485l166.912 166.912c8.875 8.533 8.875 22.869 0.341 31.744zM47.787 238.42l167.253-167.253c8.875-8.875 16.043-5.803 16.043 6.485v112.981h720.555c12.288 0 22.528 10.24 22.528 22.528v81.579c0 12.288-10.24 22.528-22.528 22.528h-720.896v112.981c0 12.288-7.168 15.36-16.043 6.485l-166.912-166.571c-8.533-8.875-8.533-23.211 0-31.744z" />
<glyph unicode="&#xe602;" glyph-name="guide" d="M304.811 375.295c-2.048 0-3.413-1.365-3.413-3.413v-41.643c0-2.048 1.365-3.413 3.413-3.413h428.715c2.048 0 3.413 1.365 3.413 3.413v41.643c0 2.048-1.365 3.413-3.413 3.413h-428.715zM304.811 230.228c-2.048 0-3.413-1.365-3.413-3.413v-41.643c0-2.048 1.365-3.413 3.413-3.413h428.715c2.048 0 3.413 1.365 3.413 3.413v41.643c0 2.048-1.365 3.413-3.413 3.413h-428.715zM615.765 859.306v-242.005h217.771v-580.608h-653.312v822.613h435.541zM664.235 665.77v193.536l169.301-169.301v-24.235h-169.301zM125.952 955.903c-23.552 0-42.325-18.773-42.325-42.325v-931.157c0-23.552 18.773-42.325 42.325-42.325h761.856c23.552 0 42.325 18.773 42.325 42.325v755.712l-217.771 217.771h-586.411z" />
<glyph unicode="&#xe603;" glyph-name="map" d="M506.88 955.903c-175.445 0-387.072-141.995-387.072-338.603 0-196.267 72.704-266.24 72.704-266.24l314.368-411.307 314.368 411.307c0 0 72.704 69.632 72.704 266.24s-211.627 338.603-387.072 338.603zM264.875 593.066c0 133.461 108.203 242.005 242.005 242.005s242.005-108.203 242.005-242.005-108.203-242.005-242.005-242.005-242.005 108.544-242.005 242.005z" />
<glyph unicode="&#xe604;" glyph-name="search" d="M299.691 812.202c-137.899-135.168-153.6-347.477-47.787-500.395l-212.992-212.992c-12.629-12.288-12.288-32.085 0-44.032l62.123-59.392c12.629-11.605 32.427-11.264 44.715 1.365l210.603 212.651c151.552-100.352 355.669-80.896 485.376 52.565 145.067 149.504 146.432 389.803 2.048 540.672-146.432 153.941-390.485 160.085-544.085 9.557zM369.323 741.546c114.688 113.323 297.643 109.568 408.235-5.461 109.227-113.323 108.203-294.571-1.365-407.211-110.933-113.323-292.864-116.053-407.211-3.413-115.712 114.688-115.712 301.739 0.341 416.085z" />
<glyph unicode="&#xe605;" glyph-name="star" horiz-adv-x="1082" d="M536.805 926.381l154.1-312.197 344.544-49.973-249.322-242.961 58.878-343.090-308.199 161.914-308.018-161.914 58.878 343.090-249.322 242.961 344.544 49.973z" />
<glyph unicode="&#xe606;" glyph-name="time" d="M439.637 639.828v-290.133h241.664v72.704h-169.301v217.429h-72.363zM28.331 446.292c0-267.264 216.405-483.669 483.669-483.669s483.669 216.405 483.669 483.669-216.405 484.011-483.669 484.011-483.669-216.747-483.669-484.011zM125.269 446.292c0 214.016 173.056 387.072 386.731 387.072s387.072-173.056 387.072-387.072-173.056-387.072-387.072-387.072-386.731 173.397-386.731 387.072z" />
<glyph unicode="&#xe607;" glyph-name="update" horiz-adv-x="922" d="M904.107 521.955l-202.524-3.84c18.347-36.693 29.582-77.511 29.582-121.316 0-150.044-120.178-271.644-268.373-271.644s-268.373 121.6-268.373 271.644c0 150.187 120.178 271.787 268.373 271.787 16.924 0 32.711-3.413 48.782-6.542l-7.111-100.551 281.173 166.116-252.871 232.391-6.827-96.569c-21.191 3.556-42.951 5.973-65.138 5.973-254.436 0-460.8-208.924-460.8-466.631s206.364-466.773 460.8-466.773c254.436 0 460.8 208.924 460.8 466.631 0 41.671-6.969 81.209-17.493 119.324z" />
<glyph unicode="&#xe608;" glyph-name="wheelchair" horiz-adv-x="891" d="M358.849 876.592c0-46.065-37.343-83.408-83.408-83.408s-83.408 37.343-83.408 83.408c0 46.065 37.343 83.408 83.408 83.408s83.408-37.343 83.408-83.408zM617.747 386.666l-366.921-10.461-1.76 61.731 366.921 10.461 1.76-61.731zM560.949 521.413l-283.744-8.062-1.753 61.698 283.744 8.062 1.753-61.698zM891.137 122.104l-164.612-76.399-25.235 54.372 164.612 76.399 25.235-54.372zM616.542 447.916l153.735-351.428-56.55-24.738-153.735 351.428 56.55 24.738zM265.040 851.192l51.467-466.769-61.352-6.765-51.467 466.769 61.352 6.765zM599.369 237.945c-16.371-131.334-128.396-232.994-264.153-232.994-147.045 0-266.232 119.187-266.232 266.199 0 100.538 55.715 188.039 137.968 233.324l-8.153 72.945c-117.141-52.217-198.799-169.687-198.799-306.269 0-185.102 150.048-335.15 335.183-335.15 137.374 0 255.406 82.616 307.16 200.879l-42.975 101.067z" />
<glyph unicode="&#xe609;" glyph-name="reversewheelchair" horiz-adv-x="891" d="M699.148 876.592c0-46.065-37.343-83.408-83.408-83.408s-83.408 37.343-83.408 83.408c0 46.065 37.343 83.408 83.408 83.408s83.408-37.343 83.408-83.408zM275.149 448.409l366.921-10.461-1.76-61.731-366.921 10.461 1.76 61.731zM331.986 583.115l283.744-8.062-1.753-61.698-283.744 8.062 1.753 61.698zM25.222 176.42l164.612-76.399-25.235-54.372-164.612 76.399 25.235 54.372zM331.159 423.219l-153.735-351.428-56.55 24.738 153.735 351.428 56.55-24.738zM687.482 844.396l-51.467-466.769-61.352 6.765 51.467 466.769 61.352-6.765zM291.812 237.945c16.371-131.334 128.396-232.994 264.153-232.994 147.045 0 266.232 119.187 266.232 266.199 0 100.538-55.715 188.039-137.968 233.324l8.153 72.945c117.141-52.217 198.799-169.687 198.799-306.269 0-185.102-150.048-335.15-335.183-335.15-137.374 0-255.406 82.616-307.16 200.879l42.975 101.067z" />
<glyph unicode="&#xe900;" glyph-name="bill" d="M507.872 412.288v555.712h-515.856v-1040h1039.968v484.288h-524.112zM194.672 183.856h-101.328v101.344h101.328v-101.344zM194.672 369.088h-101.328v100.512h101.328v-100.512zM194.672 553.52h-101.328v101.328h101.328v-101.328zM194.672 737.904h-101.328v101.36h101.328v-101.36zM406.528 183.856h-100.512v101.344h100.512v-101.344zM406.528 369.088h-100.512v100.512h100.512v-100.512zM406.528 553.52h-100.512v101.328h100.512v-101.328zM406.528 737.904h-100.512v101.36h100.512v-101.36zM972.192-13.024h-464.32v366.352h464.32v-366.352zM578.032 285.296h100.736v-101.072h-100.736v101.072zM790.24 285.296h100.928v-101.072h-100.928v101.072z" />
<glyph unicode="&#xe901;" glyph-name="calender" d="M815.44 520.368v341.072h-175.008v42.528c0 26.208-22.128 48.288-48.256 48.288-26.192 0-48.32-22.080-48.32-48.288v-42.528h-291.136v42.528c0 26.208-21.248 48.288-48.24 48.288-26.208 0-47.456-22.080-47.456-48.288v-42.528h-157.024v-728.752h454.736c41.76-110.416 148.896-188.944 274.848-188.944 162.784 0 294.416 131.68 294.416 294.464 0 132.48-87.472 244.544-208.56 282.16zM178.288 214.48h-84.272v85.056h84.272v-85.056zM178.288 339.616h-84.272v84.272h84.272v-84.272zM178.288 463.936h-84.272v85.056h84.272v-85.056zM178.288 589.088h-84.272v84.24h84.272v-84.24zM637.152 673.328h84.288v-84.24h-84.288v84.24zM637.152 548.992h84.288v-17.168c-29.472 0-57.28-4.912-84.288-13.888v31.056zM501.376 673.328h84.288v-84.24h-84.288v84.24zM501.376 548.992h84.288v-53.984c-16.368-8.992-31.072-18.816-45.056-31.072h-39.216v85.056zM365.6 673.328h85.056v-84.24h-85.056v84.24zM365.6 548.992h85.056v-85.056h-85.056v85.056zM365.6 423.872h85.056v-84.272h-85.056v84.272zM314.064 214.48h-84.256v85.056h84.256v-85.056zM314.064 339.616h-84.256v84.272h84.256v-84.272zM314.064 463.936h-84.256v85.056h84.256v-85.056zM314.064 589.088h-84.256v84.24h84.256v-84.24zM365.6 214.48v85.056h76.032c-4.064-19.648-6.464-40.096-6.464-61.344 0-8.192 0-15.568 1.6-23.712h-71.168zM729.584 2.624c-92.416 0-171.728 53.184-210.24 130.064-16.368 31.872-25.312 67.056-25.312 105.52 0 19.616 2.464 39.264 7.344 57.232 0 1.648 0 3.28 0.816 4.112 3.264 13.904 8.224 27.792 15.568 40.064 14.688 33.552 38.416 62.192 67.008 84.272h0.896c22.848 17.984 49.024 31.872 77.632 40.064 18.064 5.696 37.696 8.992 58.16 9.824h8.144c30.272 0 58.864-5.744 85.856-16.368 87.568-34.336 149.68-118.576 149.68-219.184-0.016-130.080-105.504-235.6-235.552-235.6zM729.584 356.192h-44.080v-176.528h147.2v44.24h-103.12z" />
<glyph unicode="&#xe902;" glyph-name="icon-stop" d="M512 960c-282.768 0-512-229.232-512-512s229.232-512 512-512 512 229.232 512 512-229.232 512-512 512zM512 71.44c-207.664 0-376.64 168.896-376.64 376.56 0 79.424 24.992 152.928 67.104 213.728l523.168-523.184c-60.768-42.192-134.208-67.104-213.632-67.104zM821.456 234.272l-523.12 523.184c60.8 42.192 134.24 67.12 213.664 67.12 207.664 0 376.576-168.912 376.576-376.576 0-79.344-25.008-152.848-67.12-213.728z" />
<glyph unicode="&#xe903;" glyph-name="beginner" d="M567.888 799.328c-30.848-15.584-55.888-28.368-55.888-28.368s-25.2 12.784-55.888 28.288l-304.016 154.64c-30.688 15.632-55.888 0.288-55.888-34.304v-709.664c0-34.368 25.2-75.36 55.888-91.008l304.016-154.48c30.688-15.648 55.888-28.432 55.888-28.432s25.024 12.8 55.872 28.432l304.032 154.4c30.832 15.664 55.872 56.64 55.872 91.088v709.664c0 34.528-25.040 49.872-55.872 34.304l-304.016-154.56zM844.304 261.232c0-34.512-25.12-75.36-55.808-90.944l-137.264-69.792c-30.688-15.648-74.528-37.904-97.488-49.648-23.024-11.728-41.744 6.848-41.744 41.296v522.528c0 34.368 18.72 72.128 41.728 83.856 22.96 11.6 66.8 33.92 97.488 49.504l137.264 69.792c30.688 15.568 55.808 0.144 55.808-34.304v-522.288z" />
<glyph unicode="&#xe904;" glyph-name="airplane" d="M1022.12 387.478c-0.774 21.698-14.84 41.23-36.452 50.712l-387.894 148.188c-0.458 217.322-27.040 367.166-85.772 367.166s-85.314-149.844-85.77-367.166l-387.898-148.186c-21.644-9.484-35.674-29.016-36.452-50.714l-1.866-51.418c-0.284-7.772 3.314-15.246 9.834-20.376 6.522-5.128 15.194-7.368 23.69-6.098 0 0 303.356 44.718 396.074 59.118 3.7-164.032 8.038-255.252 8.038-255.252l-102.624-48.332c-12.092-4.76-20.024-16.412-20.024-29.402v-18.93c0-8.692 3.562-17.010 9.908-22.986 6.31-5.974 14.806-9.078 23.48-8.584l129.66 7.334c4.16-28.872 17.768-50.096 33.95-50.096s29.754 21.224 33.95 50.096l129.664-7.334c8.672-0.492 17.168 2.61 23.476 8.584 6.348 5.976 9.908 14.296 9.908 22.986v18.93c0 12.99-7.932 24.642-20.024 29.402l-102.658 48.332c0 0 4.372 91.22 8.074 255.252 92.716-14.4 396.072-59.118 396.072-59.118 8.496-1.27 17.204 0.97 23.69 6.098 6.522 5.13 10.082 12.604 9.836 20.376l-1.87 51.418z" />
<glyph unicode="&#xe905;" glyph-name="check" horiz-adv-x="1116" d="M845.345 433.403v-379.751h-732.051v732.051h570.477l108.893 108.936h-792.663v-958.638h958.638v610.653l-113.294-113.25zM202.621 474.145l279.966-279.966 632.919 632.919-132.902 132.902-496.749-496.749-147.064 147.064z" />
<glyph unicode="&#xe906;" glyph-name="exclamatio" d="M512-52.364c-275.921 0-500.364 224.442-500.364 500.364s224.442 500.364 500.364 500.364 500.364-224.442 500.364-500.364-224.442-500.364-500.364-500.364zM512 878.545c-237.428 0-430.545-193.117-430.545-430.545s193.117-430.545 430.545-430.545 430.545 193.117 430.545 430.545-193.117 430.545-430.545 430.545zM546.63 694.319l-8.797-358.586h-50.967l-9.495 358.586h69.26zM545.327 201.681h-66.7v68.98h66.7v-68.98zM556.963 190.045h-89.926v92.253h89.972v-92.253zM490.31 213.318h43.427v45.708h-43.427v-45.708zM549.19 324.096h-73.681l-10.1 381.859h93.137l-9.356-381.859zM498.176 347.369h28.253l8.239 335.313h-45.382l8.89-335.313z" />
<glyph unicode="&#xe907;" glyph-name="reverseslope" horiz-adv-x="1001" d="M748.403 887.733c0-39.912-32.355-72.267-72.267-72.267s-72.267 32.355-72.267 72.267c0 39.912 32.355 72.267 72.267 72.267s72.267-32.355 72.267-72.267zM381.041 516.738l317.908-9.064-1.525-53.485-317.908 9.064 1.525 53.485zM430.286 633.457l245.842-6.985-1.519-53.456-245.842 6.985 1.519 53.456zM164.505 281.087l142.624-66.194-21.864-47.109-142.624 66.194 21.864 47.109zM429.578 494.926l-133.2-304.485-48.996 21.434 133.2 304.485 48.996-21.434zM738.307 859.842l-44.592-404.419-53.157 5.861 44.592 404.419 53.157-5.861zM395.507 334.395c14.184-113.79 111.245-201.872 228.868-201.872 127.403 0 230.67 103.267 230.67 230.641 0 87.109-48.273 162.921-119.539 202.158l7.064 63.201c101.493-45.27 172.244-147.050 172.244-265.359 0-160.376-130.005-290.382-290.41-290.382-119.024 0-221.289 71.58-266.131 174.046l37.234 87.566zM0 157.633v-221.633h1000.922z" />
<glyph unicode="&#xe908;" glyph-name="cogs" d="M363.722 237.948l41.298 57.816-45.254 45.256-57.818-41.296c-10.722 5.994-22.204 10.774-34.266 14.192l-11.682 70.084h-64l-11.68-70.086c-12.062-3.418-23.544-8.198-34.266-14.192l-57.818 41.298-45.256-45.256 41.298-57.816c-5.994-10.72-10.774-22.206-14.192-34.266l-70.086-11.682v-64l70.086-11.682c3.418-12.060 8.198-23.544 14.192-34.266l-41.298-57.816 45.254-45.256 57.818 41.296c10.722-5.994 22.204-10.774 34.266-14.192l11.682-70.084h64l11.68 70.086c12.062 3.418 23.544 8.198 34.266 14.192l57.818-41.296 45.254 45.256-41.298 57.816c5.994 10.72 10.774 22.206 14.192 34.266l70.088 11.68v64l-70.086 11.682c-3.418 12.060-8.198 23.544-14.192 34.266zM224 96c-35.348 0-64 28.654-64 64s28.652 64 64 64 64-28.654 64-64-28.652-64-64-64zM1024 576v64l-67.382 12.25c-1.242 8.046-2.832 15.978-4.724 23.79l57.558 37.1-24.492 59.128-66.944-14.468c-4.214 6.91-8.726 13.62-13.492 20.13l39.006 56.342-45.256 45.254-56.342-39.006c-6.512 4.766-13.22 9.276-20.13 13.494l14.468 66.944-59.128 24.494-37.1-57.558c-7.812 1.892-15.744 3.482-23.79 4.724l-12.252 67.382h-64l-12.252-67.382c-8.046-1.242-15.976-2.832-23.79-4.724l-37.098 57.558-59.128-24.492 14.468-66.944c-6.91-4.216-13.62-8.728-20.13-13.494l-56.342 39.006-45.254-45.254 39.006-56.342c-4.766-6.51-9.278-13.22-13.494-20.13l-66.944 14.468-24.492-59.128 57.558-37.1c-1.892-7.812-3.482-15.742-4.724-23.79l-67.384-12.252v-64l67.382-12.25c1.242-8.046 2.832-15.978 4.724-23.79l-57.558-37.1 24.492-59.128 66.944 14.468c4.216-6.91 8.728-13.618 13.494-20.13l-39.006-56.342 45.254-45.256 56.342 39.006c6.51-4.766 13.22-9.276 20.13-13.492l-14.468-66.944 59.128-24.492 37.102 57.558c7.81-1.892 15.742-3.482 23.788-4.724l12.252-67.384h64l12.252 67.382c8.044 1.242 15.976 2.832 23.79 4.724l37.1-57.558 59.128 24.492-14.468 66.944c6.91 4.216 13.62 8.726 20.13 13.492l56.342-39.006 45.256 45.256-39.006 56.342c4.766 6.512 9.276 13.22 13.492 20.13l66.944-14.468 24.492 59.13-57.558 37.1c1.892 7.812 3.482 15.742 4.724 23.79l67.382 12.25zM672 468.8c-76.878 0-139.2 62.322-139.2 139.2s62.32 139.2 139.2 139.2 139.2-62.322 139.2-139.2c0-76.878-62.32-139.2-139.2-139.2z" />
<glyph unicode="&#xe909;" glyph-name="slope" horiz-adv-x="1001" d="M397.051 887.733c0-39.912-32.355-72.267-72.267-72.267s-72.267 32.355-72.267 72.267c0 39.912 32.355 72.267 72.267 72.267s72.267-32.355 72.267-72.267zM621.35 463.246l-317.908-9.064-1.525 53.485 317.908 9.064 1.525-53.485zM572.139 579.997l-245.842-6.985-1.519 53.456 245.842 6.985 1.519-53.456zM858.245 234.036l-142.624-66.194-21.864 47.109 142.624 66.194 21.864-47.109zM620.32 516.31l133.2-304.485-48.996-21.434-133.2 304.485 48.996 21.434zM315.765 865.717l44.592-404.419-53.157-5.861-44.592 404.419 53.157 5.861zM605.415 334.395c-14.184-113.79-111.245-201.872-228.868-201.872-127.403 0-230.67 103.267-230.67 230.641 0 87.109 48.273 162.921 119.539 202.158l-7.064 63.201c-101.493-45.27-172.244-147.050-172.244-265.359 0-160.376 130.005-290.382 290.41-290.382 119.024 0 221.289 71.58 266.131 174.046l-37.234 87.566zM1000.922 157.633v-221.633h-1000.922z" />
<glyph unicode="&#xe90a;" glyph-name="sphere" d="M480 896c-265.096 0-480-214.904-480-480 0-265.098 214.904-480 480-480 265.098 0 480 214.902 480 480 0 265.096-214.902 480-480 480zM751.59 256c8.58 40.454 13.996 83.392 15.758 128h127.446c-3.336-44.196-13.624-87.114-30.68-128h-112.524zM208.41 576c-8.58-40.454-13.996-83.392-15.758-128h-127.444c3.336 44.194 13.622 87.114 30.678 128h112.524zM686.036 576c9.614-40.962 15.398-83.854 17.28-128h-191.316v128h174.036zM512 640v187.338c14.59-4.246 29.044-11.37 43.228-21.37 26.582-18.74 52.012-47.608 73.54-83.486 14.882-24.802 27.752-52.416 38.496-82.484h-155.264zM331.232 722.484c21.528 35.878 46.956 64.748 73.54 83.486 14.182 10 28.638 17.124 43.228 21.37v-187.34h-155.264c10.746 30.066 23.616 57.68 38.496 82.484zM448 576v-128h-191.314c1.88 44.146 7.666 87.038 17.278 128h174.036zM95.888 256c-17.056 40.886-27.342 83.804-30.678 128h127.444c1.762-44.608 7.178-87.546 15.758-128h-112.524zM256.686 384h191.314v-128h-174.036c-9.612 40.96-15.398 83.854-17.278 128zM448 192v-187.34c-14.588 4.246-29.044 11.372-43.228 21.37-26.584 18.74-52.014 47.61-73.54 83.486-14.882 24.804-27.75 52.418-38.498 82.484h155.266zM628.768 109.516c-21.528-35.876-46.958-64.746-73.54-83.486-14.184-9.998-28.638-17.124-43.228-21.37v187.34h155.266c-10.746-30.066-23.616-57.68-38.498-82.484zM512 256v128h191.314c-1.88-44.146-7.666-87.040-17.28-128h-174.034zM767.348 448c-1.762 44.608-7.178 87.546-15.758 128h112.524c17.056-40.886 27.344-83.806 30.68-128h-127.446zM830.658 640h-95.9c-18.638 58.762-44.376 110.294-75.316 151.428 42.536-20.34 81.058-47.616 114.714-81.272 21.48-21.478 40.362-44.938 56.502-70.156zM185.844 710.156c33.658 33.658 72.18 60.932 114.714 81.272-30.942-41.134-56.676-92.666-75.316-151.428h-95.898c16.138 25.218 35.022 48.678 56.5 70.156zM129.344 192h95.898c18.64-58.762 44.376-110.294 75.318-151.43-42.536 20.34-81.058 47.616-114.714 81.274-21.48 21.478-40.364 44.938-56.502 70.156zM774.156 121.844c-33.656-33.658-72.18-60.934-114.714-81.274 30.942 41.134 56.678 92.668 75.316 151.43h95.9c-16.14-25.218-35.022-48.678-56.502-70.156z" />
<glyph unicode="&#xe90b;" glyph-name="question" d="M515.863-50.409c-275.921 0-500.364 224.442-500.364 500.364s224.442 500.364 500.364 500.364 500.364-224.442 500.364-500.364-224.442-500.364-500.364-500.364zM515.863 880.5c-237.428 0-430.545-193.117-430.545-430.545s193.117-430.545 430.545-430.545 430.545 193.117 430.545 430.545-193.117 430.545-430.545 430.545zM517.632 406.993v-74.473h-53.155v96.721c55.156 30.534 89.74 55.808 103.75 75.729s20.992 40.82 20.992 62.697c0 24.39-8.006 43.241-24.017 56.46s-38.353 19.921-66.979 19.921c-35.654 0-73.402-11.031-113.292-33.094h-3.491v60.788c41.798 15.267 82.199 22.9 121.204 22.9 45.196 0 81.082-11.078 107.706-33.233s39.936-51.805 39.936-88.948c0-28.625-7.913-55.063-23.692-79.22s-52.131-52.969-108.963-86.249zM524.614 205.265h-64.931v67.119h64.931v-67.119zM536.25 193.629h-88.204v90.391h88.204v-90.391zM471.319 216.902h41.658v43.846h-41.658v-43.846zM529.268 320.931h-76.428v115.247l6.004 3.305c53.341 29.51 86.9 53.853 99.84 72.239 12.521 17.827 18.897 36.678 18.897 55.994 0 20.945-6.47 36.492-19.782 47.523-13.824 11.45-33.885 17.222-59.578 17.222-33.466 0-69.725-10.659-107.66-31.651l-5.632-1.489h-15.127v80.524l7.633 2.793c42.868 15.639 85.039 23.599 125.207 23.599 47.756 0 86.481-12.102 115.153-35.933 29.277-24.343 44.125-57.297 44.125-97.885 0-30.813-8.611-59.578-25.6-85.597-16.431-25.088-51.433-53.434-107.101-86.481v-79.407zM476.113 344.204h29.882v69.446l5.772 3.398c55.017 32.209 90.391 59.997 105.1 82.525 14.476 22.156 21.83 46.685 21.83 72.844 0 33.792-11.683 59.951-35.747 80.012-24.343 20.294-58.089 30.534-100.259 30.534-35.095 0-71.913-6.563-109.568-19.503v-35.142c70.796 35.142 142.15 35.654 179.526 4.794 18.758-15.5 28.253-37.516 28.253-65.443 0-24.204-7.773-47.523-23.133-69.353-14.615-20.852-47.895-45.708-101.609-75.869v-78.243z" />
<glyph unicode="&#xe90c;" glyph-name="image" d="M959.884 832c0.040-0.034 0.082-0.076 0.116-0.116v-767.77c-0.034-0.040-0.076-0.082-0.116-0.116h-895.77c-0.040 0.034-0.082 0.076-0.114 0.116v767.772c0.034 0.040 0.076 0.082 0.114 0.114h895.77zM960 896h-896c-35.2 0-64-28.8-64-64v-768c0-35.2 28.8-64 64-64h896c35.2 0 64 28.8 64 64v768c0 35.2-28.8 64-64 64v0zM832 672c0-53.020-42.98-96-96-96s-96 42.98-96 96 42.98 96 96 96 96-42.98 96-96zM896 128h-768v128l224 384 256-320h64l224 192z" />
<glyph unicode="&#xe90d;" glyph-name="home" d="M1024 369.556l-512 397.426-512-397.428v162.038l512 397.426 512-397.428zM896 384v-384h-256v256h-256v-256h-256v384l384 288z" />
<glyph unicode="&#xe90e;" glyph-name="arrow" d="M1008.086 486.42l-271.668 271.666c-21.218 21.218-55.62 21.218-76.838 0-21.218-21.216-21.218-55.62 0-76.838l178.914-178.914h-652.99l178.914 178.914c21.218 21.218 21.218 55.622 0 76.838-21.218 21.218-55.62 21.218-76.838 0l-271.666-271.666c-21.218-21.22-21.218-55.622 0-76.838l271.666-271.668c21.22-21.216 55.62-21.216 76.838 0 10.61 10.61 15.914 24.516 15.914 38.42s-5.304 27.81-15.914 38.42l-178.914 178.912h652.99l-178.914-178.912c-10.61-10.61-15.914-24.516-15.914-38.42s5.304-27.81 15.914-38.42c21.218-21.216 55.62-21.216 76.838 0l271.668 271.668c21.218 21.216 21.218 55.618 0 76.838z" />
<glyph unicode="&#xe90f;" glyph-name="stop" horiz-adv-x="811" d="M653.042 525.283l-222.189-67.623c-7.728-1.932-13.525-11.592-11.592-19.321l131.381-428.921c1.932-7.728 11.592-13.525 19.321-11.592l222.189 67.623c7.728 1.932 13.525 11.592 11.592 19.321l-131.381 428.921c-1.932 7.728-11.592 13.525-19.321 11.592zM751.577 158.189c1.932-3.864-1.932-9.66-5.796-9.66l-181.615-56.030c-3.864-1.932-9.66 1.932-9.66 5.796l-92.74 303.336c-1.932 3.864 1.932 9.66 5.796 9.66l181.615 56.030c3.864 1.932 9.66-1.932 9.66-5.796l92.74-303.336zM214.46 531.079c-117.857 0-214.46 96.604-214.46 214.46s96.604 214.46 214.46 214.46 214.46-96.604 214.46-214.46c0-117.857-96.604-214.46-214.46-214.46zM214.46 921.358c-96.604 0-173.887-79.215-173.887-173.887s79.215-173.887 173.887-173.887c96.604 0 173.887 79.215 173.887 173.887s-77.283 173.887-173.887 173.887zM195.14 146.596h38.642v-177.751h-38.642v177.751zM195.14 550.4h38.642v-98.536h-38.642v98.536zM332.317 136.936h-229.917v336.181h229.917v-336.181zM142.974 175.577h150.702v256.966h-150.702v-256.966zM287.879-64h-144.906l19.321 69.555h112.060zM266.626 305.026c0-27.743-22.491-50.234-50.234-50.234s-50.234 22.491-50.234 50.234c0 27.743 22.491 50.234 50.234 50.234s50.234-22.491 50.234-50.234zM701.343 260.589c0-49.085-39.791-88.875-88.875-88.875s-88.875 39.791-88.875 88.875c0 49.085 39.791 88.875 88.875 88.875s88.875-39.791 88.875-88.875zM320.725 716.558h-212.528c-5.796 0-9.66-5.796-7.728-11.592 15.457-40.574 50.234-71.487 94.672-79.215 5.796 0 13.525-1.932 19.321-1.932s13.525 0 19.321 1.932c44.438 7.728 81.147 38.642 94.672 79.215 1.932 3.864-1.932 11.592-7.728 11.592zM106.264 776.453h214.46c5.796 0 9.66 5.796 7.728 11.592-17.389 48.302-61.826 81.147-115.925 81.147-52.166-1.932-96.604-34.777-113.992-83.079-1.932-3.864 3.864-9.66 7.728-9.66z" />
<glyph unicode="&#xe910;" glyph-name="screen" horiz-adv-x="657" d="M529.389 960h-494.611c-19.321 0-34.777-15.457-34.777-34.777v-954.445c0-19.321 15.457-34.777 34.777-34.777h494.611c19.321 0 34.777 15.457 34.777 34.777v322.657c-19.321-9.66-40.574-17.389-61.826-25.117v-113.992c0-9.66-7.728-17.389-17.389-17.389h-405.736c-9.66 0-17.389 7.728-17.389 17.389v676.226c0 9.66 7.728 17.389 17.389 17.389h405.736c9.66 0 17.389-7.728 17.389-17.389v-127.517c21.253-5.796 42.506-13.525 61.826-25.117v247.306c0 19.321-15.457 34.777-34.777 34.777zM355.502 415.155c0-9.66-7.728-17.389-17.389-17.389s-17.389 7.728-17.389 17.389c0 9.66 7.728 17.389 17.389 17.389s17.389-7.728 17.389-17.389zM436.649 401.63v-13.525c0-3.864-1.932-5.796-5.796-5.796h-40.574c-1.932 0-5.796 1.932-5.796 5.796v13.525c0 3.864 1.932 5.796 5.796 5.796h40.574c3.864 0 5.796-1.932 5.796-5.796zM343.909 589.042v11.592c0 3.864 1.932 5.796 5.796 5.796h123.653c1.932 0 5.796-1.932 5.796-5.796v-11.592c0-3.864-1.932-5.796-5.796-5.796h-123.653c-1.932 0-5.796 1.932-5.796 5.796zM500.408 415.155c0-9.66-7.728-17.389-17.389-17.389s-17.389 7.728-17.389 17.389c0 9.66 7.728 17.389 17.389 17.389 11.592 0 17.389-7.728 17.389-17.389zM504.272 563.925v-90.808c0-3.864-1.932-5.796-5.796-5.796h-173.887c-3.864 0-5.796 1.932-5.796 5.796v90.808c0 1.932 1.932 5.796 5.796 5.796h173.887c3.864 0 5.796-3.864 5.796-5.796zM564.166 633.479c-19.321 11.592-38.642 21.253-61.826 28.981-28.981 9.66-57.962 13.525-90.808 13.525-133.313 0-241.509-85.011-241.509-189.343 0-57.962 32.845-110.128 85.011-144.906-7.728-23.185-25.117-79.215-44.438-106.264l135.245 67.623c21.253-3.864 42.506-7.728 65.691-7.728 30.913 0 61.826 5.796 90.808 13.525 23.185 7.728 42.506 17.389 61.826 28.981 54.098 34.777 88.875 88.875 88.875 146.838 0 59.894-34.777 113.992-88.875 148.77zM527.457 390.038c0-11.592-3.864-15.457-15.457-15.457h-3.864v-17.389c0-3.864-1.932-5.796-5.796-5.796h-19.321c-1.932 0-5.796 1.932-5.796 5.796v17.389h-131.381v-17.389c0-3.864-1.932-5.796-5.796-5.796h-19.321c-3.864 0-5.796 1.932-5.796 5.796v17.389h-3.864c-11.592 0-15.457 3.864-15.457 15.457v199.004c0 11.592 7.728 23.185 21.253 27.049 19.321 3.864 71.487 5.796 94.672 5.796s75.351 0 94.672-5.796c13.525-1.932 21.253-15.457 21.253-27.049v-199.004z" />
<glyph unicode="&#xe911;" glyph-name="nfc" d="M1024 867.84v-834.56c0-51.2-40.96-92.16-92.16-92.16h-337.92c-71.68 0-140.8 0-194.56 40.96-51.2 40.96-69.12 120.32-76.8 181.76s-15.36 204.8-15.36 261.12c0 56.32 2.56 273.92 2.56 273.92l325.12-325.12v128l-409.6 409.6c0 0-2.56-99.84-2.56-217.6-2.56-143.36-2.56-314.88 0-360.96 2.56-56.32 2.56-125.44 10.24-192 2.56-30.72 10.24-71.68 15.36-94.72 5.12-15.36 12.8-35.84 20.48-48.64 12.8-23.040 25.6-35.84 51.2-58.88h-230.4c-51.2 0-92.16 40.96-92.16 92.16v837.12c2.56 48.64 40.96 89.6 89.6 92.16h424.96c102.4-15.36 120.32-48.64 143.36-79.36 33.28-43.52 48.64-156.16 53.76-256s2.56-422.4 2.56-422.4l-327.68 325.12v-128l412.16-409.6c0 0 15.36 555.52-5.12 750.080-17.92 158.72-43.52 184.32-89.6 222.72h238.080c46.080-5.12 84.48-46.080 84.48-94.72z" />
<glyph unicode="&#xe912;" glyph-name="location" horiz-adv-x="754" d="M376.755 152.392c0 0 297.54 251.17 297.54 510.068-1.932 164.226-135.245 297.54-297.54 297.54-164.226 0-297.54-133.313-297.54-297.54 0-258.898 297.54-510.068 297.54-510.068zM376.755 782.249c65.691 0 119.789-54.098 119.789-119.789s-54.098-119.789-119.789-119.789c-65.691 0-119.789 54.098-119.789 119.789s52.166 119.789 119.789 119.789zM741.917 202.626c-5.796 11.592-13.525 23.185-21.253 34.777-15.457 17.389-34.777 30.913-59.894 44.438-19.321 9.66-38.642 17.389-63.758 25.117-1.932 0-3.864 0-5.796 1.932-1.932 0-3.864 1.932-5.796 1.932 0 0 0 0 1.932 0 0 0-1.932 0-1.932 0 3.864-1.932 5.796-3.864 9.66-5.796 21.253-11.592 40.574-23.185 56.030-36.709 19.321-15.457 34.777-32.845 44.438-50.234 11.592-21.253 15.457-40.574 11.592-59.894-3.864-17.389-13.525-32.845-28.981-48.302-34.777-30.913-83.079-46.37-110.128-54.098-32.845-9.66-69.555-15.457-110.128-17.389-28.981-1.932-54.098-1.932-73.419-1.932h-15.457c-21.253 0-46.37 0-73.419 1.932-40.574 1.932-77.283 7.728-110.128 17.389-27.049 7.728-77.283 23.185-110.128 54.098-15.457 15.457-25.117 30.913-28.981 46.37-3.864 19.321 0 38.642 11.592 59.894 9.66 17.389 25.117 34.777 44.438 50.234 15.457 13.525 34.777 25.117 56.030 36.709 1.932 1.932 3.864 1.932 7.728 3.864 0 0 1.932 0 1.932 1.932 0 0-1.932 0-1.932 0s0 0 1.932 0c-3.864 0-7.728-1.932-9.66-1.932-23.185-7.728-44.438-15.457-63.758-25.117-25.117-13.525-44.438-27.049-59.894-44.438-9.66-11.592-17.389-23.185-23.185-34.777-7.728-13.525-11.592-28.981-11.592-42.506 0-15.457 1.932-28.981 7.728-44.438 5.796-13.525 11.592-25.117 21.253-38.642 15.457-21.253 34.777-38.642 59.894-56.030 21.253-15.457 42.506-27.049 65.691-36.709 92.74-40.574 177.751-46.37 220.257-48.302 42.506 0 127.517 7.728 220.257 46.37 25.117 11.592 46.37 23.185 65.691 36.709 25.117 17.389 44.438 34.777 59.894 56.030 9.66 13.525 17.389 25.117 21.253 38.642 5.796 13.525 7.728 28.981 7.728 44.438 1.932 15.457-1.932 30.913-7.728 44.438z" />
<glyph unicode="&#xe913;" glyph-name="device" horiz-adv-x="1958" d="M1924.518 917.835h-478.871c-18.071 0-33.129-15.059-33.129-33.129v-921.6c0-18.071 15.059-33.129 33.129-33.129h478.871c18.071 0 33.129 15.059 33.129 33.129v921.6c0 18.071-15.059 33.129-33.129 33.129zM1897.412 137.788c0-9.035-6.024-15.059-15.059-15.059h-391.529c-9.035 0-15.059 6.024-15.059 15.059v653.553c0 9.035 6.024 18.071 15.059 18.071h391.529c9.035 0 15.059-9.035 15.059-18.071v-653.553zM1358.306 5.271c-9.035 15.059-90.353 195.765-99.388 207.812-9.035 15.059-15.059 18.071-30.118 18.071h-3.012c3.012 3.012 3.012 6.024 3.012 9.035v27.106c0 3.012 0 3.012 0 6.024v0c6.024 0 12.047 6.024 12.047 12.047v662.588c0 6.024-6.024 12.047-12.047 12.047h-1090.259c-6.024 0-12.047-6.024-12.047-12.047v-662.588c0-6.024 6.024-12.047 12.047-12.047v0c0-3.012 0-3.012 0-6.024v-24.094c0-3.012 3.012-6.024 3.012-9.035v0c-15.059 0-24.094-3.012-30.118-18.071-9.035-15.059-90.353-195.765-99.388-207.812-9.035-15.059-12.047-30.118-12.047-42.165 0-15.059 6.024-33.129 30.118-33.129h641.506c18.071 0 27.106 0 27.106 0h641.506c24.094 0 30.118 21.082 30.118 33.129s-6.024 27.106-12.047 39.153zM1186.635 336.565h-1005.929v563.2h1005.929v-563.2z" />
<glyph unicode="&#xe914;" glyph-name="arrow_up" d="M316 280.667l-60 60 256 256 256-256-60-60-196 196z" />
<glyph unicode="&#xe915;" glyph-name="arrow_right" d="M366 240.667l196 196-196 196 60 60 256-256-256-256z" />
<glyph unicode="&#xe916;" glyph-name="arrow_left" d="M658 252.667l-60-60-256 256 256 256 60-60-196-196z" />
<glyph unicode="&#xe917;" glyph-name="arrow_down" d="M316 604.667l196-196 196 196 60-60-256-256-256 256z" />
<glyph unicode="&#xe918;" glyph-name="arrow-down" d="M877.254 338.746l-320-320c-24.992-24.994-65.514-24.994-90.508 0l-320 320c-24.994 24.994-24.994 65.516 0 90.51 24.994 24.996 65.516 24.996 90.51 0l210.744-210.746v613.49c0 35.346 28.654 64 64 64s64-28.654 64-64v-613.49l210.746 210.746c12.496 12.496 28.876 18.744 45.254 18.744s32.758-6.248 45.254-18.746c24.994-24.994 24.994-65.514 0-90.508z" />
<glyph unicode="&#xe919;" glyph-name="redo" d="M0 384c0-152.924 67.048-290.184 173.35-384l84.666 96c-79.726 70.364-130.016 173.304-130.016 288 0 212.076 171.93 384 384 384 106.042 0 202.038-42.986 271.53-112.478l-143.53-143.522h384v384l-149.97-149.978c-92.654 92.658-220.644 149.978-362.030 149.978-282.77 0-512-229.23-512-512z" />
</font>
</defs>
</svg>
